<?xml version="1.0" standalone="no"?>
<!DOCTYPE svg PUBLIC "-//W3C//DTD SVG 20010904//EN"
 "http://www.w3.org/TR/2001/REC-SVG-20010904/DTD/svg10.dtd">
<svg version="1.0" xmlns="http://www.w3.org/2000/svg"
 width="256.000000pt" height="256.000000pt" viewBox="0 0 256.000000 256.000000"
 preserveAspectRatio="xMidYMid meet">

<g transform="translate(0.000000,256.000000) scale(0.100000,-0.100000)"
fill="#000000" stroke="none">
<path d="M161 2394 c-31 -22 -53 -77 -45 -112 9 -36 50 -80 84 -87 16 -4 43 0
64 9 35 15 36 14 111 -31 l75 -46 0 -779 0 -778 85 0 85 0 0 815 0 815 -57 0
c-50 0 -66 6 -144 52 -71 41 -88 57 -93 80 -9 45 -51 78 -100 78 -23 0 -52 -7
-65 -16z"/>
<path d="M1340 1295 l0 -725 80 0 80 0 0 725 0 725 -80 0 -80 0 0 -725z"/>
<path d="M2190 1215 l0 -645 85 0 85 0 0 645 0 645 -85 0 -85 0 0 -645z"/>
<path d="M1050 1195 l0 -625 85 0 85 0 0 625 0 625 -85 0 -85 0 0 -625z"/>
<path d="M1620 1195 l0 -625 85 0 85 0 0 625 0 625 -85 0 -85 0 0 -625z"/>
<path d="M1890 1105 l0 -535 85 0 85 0 0 535 0 535 -85 0 -85 0 0 -535z"/>
<path d="M750 1075 l0 -505 85 0 85 0 0 505 0 505 -85 0 -85 0 0 -505z"/>
<path d="M485 511 c-45 -11 -69 -27 -103 -65 -67 -77 -67 -185 0 -262 43 -49
83 -67 148 -67 121 0 200 79 200 201 0 47 -6 67 -29 105 -45 70 -138 108 -216
88z"/>
<path d="M2230 511 c-57 -18 -93 -45 -121 -89 -61 -97 -27 -232 73 -283 52
-27 139 -30 183 -7 66 35 115 113 115 183 0 68 -49 148 -110 180 -33 17 -109
26 -140 16z"/>
</g>
</svg>
