 <svg version="1.0" xmlns="http://www.w3.org/2000/svg"  
 width="84.000000pt" height="84.000000pt" 
 viewBox="0 0 84.000000 84.000000"  
 preserveAspectRatio="xMidYMid meet">  
 <g transform="translate(0.000000,84.000000) scale(0.100000,-0.100000)" 
 fill="currentColor" class="brand-image" stroke="none"> 
 <path d="M665 786 c-26 -21 -32 -22 -45 -11 -12 11 -30 12 -74 6 -33 -5 -79 -6 -102 -3 -33 3 -46 0 -63 -17 -11 -11 -21 -31 -21 -44 0 -20 -43 -91 -87 -143 -10 -12 -46 -40 -80 -63 -34 -22 -65 -46 -69 -52 -4 -7 -8 -105 -9 -218 l-2 -206 201 2 200 2 47 93 c33 68 51 119 64 188 9 52 23 117 31 144 8 27 14 72 14 100 1 28 7 62 15 76 18 31 19 70 3 70 -7 0 0 12 15 26 28 24 28 26 13 49 -9 14 -17 25 -19 25 -1 0 -15 -11 -32 -24z m30 -25 c-9 -8 -131 -111 -179 -150 -18 -15 -18 -15 -10 0 12 21 175 159 188 159 6 0 6 -3 1 -9z m-95 -14 c0 -20 -29 -43 -71 -56 -34 -11 -36 -14 -49 -80 -8 -44 -10 -95 -5 -144 12 -131 42 -113 71 41 17 87 22 101 58 140 21 23 47 42 58 42 18 0 18 -1 1 -32 -10 -18 -20 -64 -24 -103 -13 -151 -48 -296 -97 -397 l-46 -98 -180 0 -179 0 6 117 c3 65 2 147 -2 183 -5 36 -5 72 0 80 5 10 9 -6 9 -42 0 -45 3 -58 15 -58 12 0 14 11 9 58 -5 46 -3 60 10 71 14 12 16 8 16 -43 0 -45 3 -56 16 -56 14 0 16 8 10 55 l-6 56 48 52 c27 29 54 61 60 72 18 32 14 -1 -8 -57 -25 -67 -27 -138 -4 -138 13 0 15 7 10 30 -3 17 -1 42 5 58 6 15 23 77 39 137 l27 110 84 6 c46 3 92 6 102 7 9 1 17 -4 17 -11z m-76 -234 c-9 -55 -24 -65 -24 -17 0 41 6 54 22 54 5 0 6 -17 2 -37z"/> 
 </g> </svg> 