<?xml version="1.0" encoding="UTF-8"?>
<!DOCTYPE svg PUBLIC "-//W3C//DTD SVG 1.1//EN" "http://www.w3.org/Graphics/SVG/1.1/DTD/svg11.dtd">
<svg xmlns="http://www.w3.org/2000/svg" version="1.1" width="512px" height="512px" style="shape-rendering:geometricPrecision; text-rendering:geometricPrecision; image-rendering:optimizeQuality; fill-rule:evenodd; clip-rule:evenodd" xmlns:xlink="http://www.w3.org/1999/xlink">
<g><path style="opacity:0.989" fill="#000000" d="M 233.5,-0.5 C 248.167,-0.5 262.833,-0.5 277.5,-0.5C 377.807,11.9842 449.307,63.9842 492,155.5C 502.297,180.687 508.797,206.687 511.5,233.5C 511.5,248.167 511.5,262.833 511.5,277.5C 499.018,377.805 447.018,449.305 355.5,492C 330.316,502.296 304.316,508.796 277.5,511.5C 262.833,511.5 248.167,511.5 233.5,511.5C 133.193,499.016 61.693,447.016 19,355.5C 8.70332,330.313 2.20332,304.313 -0.5,277.5C -0.5,262.833 -0.5,248.167 -0.5,233.5C 11.9821,133.195 63.9821,61.6947 155.5,19C 180.684,8.70393 206.684,2.20393 233.5,-0.5 Z M 247.5,76.5 C 291.252,75.7896 320.752,95.7896 336,136.5C 345.891,183.548 329.391,217.715 286.5,239C 243.142,252.438 208.642,240.604 183,203.5C 163.095,163.093 169.262,127.26 201.5,96C 215.164,85.3285 230.497,78.8285 247.5,76.5 Z M 195.5,287.5 C 235.501,287.333 275.501,287.5 315.5,288C 353.683,294.848 377.849,317.015 388,354.5C 393.909,377.123 387.076,394.623 367.5,407C 312.402,445.304 253.068,453.638 189.5,432C 165.507,423.105 144.674,409.605 127,391.5C 120.406,379.412 119.073,366.745 123,353.5C 133.764,316.561 157.931,294.561 195.5,287.5 Z"/></g>
</svg>
