<?xml version="1.0" standalone="no"?>
<!DOCTYPE svg PUBLIC "-//W3C//DTD SVG 20010904//EN"
 "http://www.w3.org/TR/2001/REC-SVG-20010904/DTD/svg10.dtd">
<svg version="1.0" xmlns="http://www.w3.org/2000/svg"
 width="128.000000pt" height="128.000000pt" viewBox="0 0 128.000000 128.000000"
 preserveAspectRatio="xMidYMid meet">

<g transform="translate(0.000000,128.000000) scale(0.100000,-0.100000)"
fill="#000000" stroke="none">
<path d="M420 1267 c-113 -32 -199 -121 -230 -237 -6 -25 -21 -55 -33 -68 -45
-48 -10 -142 53 -142 22 0 30 -8 45 -41 39 -85 155 -159 250 -159 57 0 131 29
177 69 29 26 56 41 79 43 32 3 34 5 37 46 2 27 8 42 17 42 24 0 55 50 55 90 0
26 -7 43 -24 59 -13 12 -26 39 -30 59 -13 84 -86 176 -171 218 -62 30 -161 39
-225 21z m222 -60 c72 -42 117 -100 143 -185 12 -41 -20 -22 -58 33 -67 98
-201 140 -319 99 -55 -18 -117 -69 -143 -118 -24 -44 -48 -49 -39 -8 17 73 89
157 168 194 62 29 187 21 248 -15z m-61 -88 c120 -37 191 -189 143 -309 -14
-36 -20 -40 -50 -40 -19 0 -46 7 -59 16 -43 28 -86 -6 -70 -55 9 -28 41 -36
71 -16 14 9 33 15 42 13 30 -6 -72 -58 -127 -65 -68 -8 -131 11 -182 55 -54
47 -79 101 -79 177 0 165 149 272 311 224z m252 -198 c6 -23 -18 -61 -39 -61
-11 0 -14 11 -13 43 1 23 4 45 6 50 7 12 40 -11 46 -32z m-613 -17 c0 -37 -3
-45 -16 -42 -36 7 -35 88 1 88 11 0 15 -11 15 -46z m550 -124 c0 -5 -5 -10
-11 -10 -5 0 -7 5 -4 10 3 6 8 10 11 10 2 0 4 -4 4 -10z"/>
<path d="M1047 852 c-19 -2 -31 -12 -38 -29 -6 -16 -14 -23 -24 -19 -8 3 -21
9 -29 12 -33 13 -86 -73 -56 -91 14 -9 3 -24 -26 -35 -20 -8 -24 -16 -24 -54
0 -41 2 -45 30 -51 30 -7 30 -7 14 -37 -16 -30 -15 -31 15 -62 31 -31 32 -31
61 -14 l30 17 8 -32 c7 -29 12 -32 50 -35 38 -3 43 0 54 25 7 15 13 29 13 30
1 2 15 -3 33 -9 28 -11 34 -10 57 12 26 24 28 41 11 82 -6 12 0 18 24 23 30 7
31 8 28 53 -2 38 -7 48 -23 50 -31 6 -37 17 -24 46 11 24 10 29 -16 56 -16 17
-35 28 -42 25 -7 -3 -19 -8 -27 -11 -9 -4 -20 5 -30 24 -15 29 -18 30 -69 24z
m33 -47 c0 -23 46 -48 75 -41 36 9 46 0 33 -29 -15 -33 3 -75 32 -75 13 0 20
-7 20 -20 0 -13 -7 -20 -20 -20 -11 0 -27 -11 -35 -24 -15 -23 -15 -27 0 -49
13 -20 13 -26 2 -35 -10 -9 -19 -7 -36 4 -20 14 -24 14 -46 0 -14 -9 -25 -25
-25 -36 0 -29 -28 -25 -36 5 -9 37 -39 50 -69 31 -18 -12 -25 -13 -34 -3 -6 8
-6 18 -1 27 17 27 10 51 -20 68 -35 20 -39 42 -9 49 27 7 42 48 29 74 -15 28
-3 41 30 34 34 -8 66 7 75 35 7 23 35 27 35 5z"/>
<path d="M1008 724 c-71 -38 -63 -146 14 -178 85 -36 168 46 133 130 -25 60
-88 81 -147 48z m95 -36 c9 -7 19 -25 22 -40 5 -21 1 -33 -19 -52 -30 -31 -59
-33 -86 -6 -24 24 -26 67 -3 92 19 21 62 24 86 6z"/>
<path d="M358 581 c-153 -49 -267 -158 -325 -308 -21 -55 -26 -87 -27 -168
l-1 -100 500 0 500 0 3 49 c15 241 -147 472 -373 531 -80 20 -206 19 -277 -4z
m263 -37 c204 -61 325 -210 343 -427 l7 -77 -465 0 -466 0 0 64 c0 82 29 176
79 253 56 86 172 169 268 192 62 15 176 12 234 -5z"/>
</g>
</svg>
