<?xml version="1.0" standalone="no"?>
<!DOCTYPE svg PUBLIC "-//W3C//DTD SVG 20010904//EN"
 "http://www.w3.org/TR/2001/REC-SVG-20010904/DTD/svg10.dtd">
<svg version="1.0" xmlns="http://www.w3.org/2000/svg"
 width="128.000000pt" height="128.000000pt" viewBox="0 0 128.000000 128.000000"
 preserveAspectRatio="xMidYMid meet">

<g transform="translate(0.000000,128.000000) scale(0.100000,-0.100000)"
fill="#000000" stroke="none">
<path d="M510 1272 c-37 -17 -61 -41 -75 -75 -13 -31 -20 -37 -45 -37 -16 0
-32 -4 -35 -10 -3 -5 -42 -10 -86 -10 -92 0 -130 -15 -159 -63 -19 -31 -20
-53 -20 -500 0 -527 -1 -521 71 -557 36 -19 61 -20 381 -20 382 0 393 2 431
68 18 30 19 59 18 485 0 248 0 464 -1 480 0 17 -13 41 -34 64 -32 35 -37 37
-117 44 -147 14 -154 16 -173 59 -9 21 -28 46 -43 55 -29 19 -90 28 -113 17z
m98 -68 c12 -14 22 -33 22 -43 0 -27 21 -41 60 -41 44 0 59 -13 52 -46 l-4
-24 -140 0 c-108 0 -138 3 -132 13 6 10 4 10 -7 0 -7 -7 -37 -13 -66 -13 -43
0 -53 3 -53 17 0 31 31 53 76 53 42 0 43 1 50 38 8 42 20 61 49 73 30 12 67 2
93 -27z m-312 -121 c-5 -15 -14 -18 -39 -15 -22 2 -41 -3 -60 -18 l-27 -21 0
-456 c0 -411 2 -458 17 -475 15 -17 39 -18 353 -18 317 0 338 1 354 19 15 17
17 59 17 469 -1 247 -3 456 -6 464 -7 18 -47 38 -75 38 -11 0 -20 2 -20 4 0 2
-2 11 -5 19 -10 25 105 3 127 -25 23 -31 24 -65 18 -560 l-5 -417 -23 -23
c-22 -23 -23 -23 -378 -26 l-355 -3 -29 30 -30 29 0 475 0 474 26 26 c21 21
37 27 82 29 68 4 65 4 58 -19z m1 -73 c5 -19 14 -20 255 -20 234 0 250 1 255
18 3 12 12 18 26 16 12 -1 25 -3 30 -3 4 -1 7 -204 7 -451 l0 -450 -327 2
-328 3 -3 444 c-2 480 -5 461 51 461 21 0 30 -6 34 -20z"/>
<path d="M530 1203 c-38 -13 -52 -71 -26 -105 19 -25 81 -24 99 2 8 11 16 17
20 14 3 -3 1 13 -5 35 -6 23 -15 41 -20 41 -5 0 -7 3 -5 8 6 8 -41 12 -63 5z
m40 -48 c15 -18 5 -35 -21 -35 -12 0 -19 7 -19 18 0 33 20 42 40 17z"/>
<path d="M615 1090 c3 -5 11 -10 16 -10 6 0 7 5 4 10 -3 6 -11 10 -16 10 -6 0
-7 -4 -4 -10z"/>
<path d="M268 868 c-2 -24 -1 -64 0 -90 l4 -48 83 0 84 0 3 38 c2 20 1 61 0
90 l-4 52 -83 0 -84 0 -3 -42z m140 -27 c2 -12 1 -34 -2 -47 -6 -21 -12 -24
-50 -24 l-44 0 -4 46 c-2 25 -1 48 1 50 3 3 26 4 51 2 39 -3 45 -6 48 -27z"/>
<path d="M573 892 c-29 -2 -43 -8 -43 -18 0 -11 25 -14 139 -14 83 0 142 4
146 10 3 6 0 13 -8 15 -16 7 -175 11 -234 7z"/>
<path d="M530 765 c0 -16 18 -18 159 -16 89 1 97 3 86 20 -4 7 -52 11 -126 11
-99 0 -119 -3 -119 -15z"/>
<path d="M270 550 l0 -90 85 0 c49 0 85 4 86 10 0 6 1 37 1 70 0 110 9 100
-87 100 l-85 0 0 -90z m140 0 l0 -50 -50 0 c-27 0 -51 3 -51 8 -13 86 -10 92
51 92 l50 0 0 -50z"/>
<path d="M588 622 c-43 -2 -58 -7 -58 -17 0 -12 24 -15 139 -15 83 0 142 4
146 10 3 6 0 12 -7 14 -19 7 -154 11 -220 8z"/>
<path d="M535 499 c-15 -23 15 -30 126 -27 93 2 114 6 114 18 0 12 -21 16
-117 18 -78 2 -119 -1 -123 -9z"/>
<path d="M273 358 c-8 -12 -9 -40 -5 -135 l2 -33 85 0 85 0 2 28 c10 147 7
152 -86 152 -47 0 -77 -4 -83 -12z m137 -78 l0 -50 -50 0 c-33 0 -50 4 -51 13
0 6 -3 23 -5 37 -8 41 2 50 56 50 l50 0 0 -50z"/>
<path d="M530 335 c0 -8 6 -15 13 -16 48 -4 259 1 267 6 28 17 -15 25 -141 25
-117 0 -139 -2 -139 -15z"/>
<path d="M532 223 c3 -16 16 -18 123 -18 100 0 120 3 120 15 0 12 -22 15 -123
18 -114 2 -123 1 -120 -15z"/>
<path d="M1070 982 c-22 -18 -22 -19 -22 -337 0 -470 -3 -424 37 -470 l34 -40
38 38 38 37 -3 373 c-4 361 -4 373 -25 395 -25 27 -67 29 -97 4z m78 -334 l2
-308 -35 0 -35 0 0 294 c0 162 3 302 6 311 4 10 16 15 33 13 l26 -3 3 -307z
m2 -387 c0 -46 -22 -70 -45 -51 -9 7 -15 29 -15 51 0 37 2 39 30 39 28 0 30
-2 30 -39z"/>
</g>
</svg>
