<?xml version="1.0" standalone="no"?>
<!DOCTYPE svg PUBLIC "-//W3C//DTD SVG 20010904//EN"
 "http://www.w3.org/TR/2001/REC-SVG-20010904/DTD/svg10.dtd">
<svg version="1.0" xmlns="http://www.w3.org/2000/svg"
 width="128.000000pt" height="128.000000pt" viewBox="0 0 128.000000 128.000000"
 preserveAspectRatio="xMidYMid meet">

<g transform="translate(0.000000,128.000000) scale(0.100000,-0.100000)"
fill="#000000" stroke="none">
<path d="M626 1266 c-21 -8 -43 -19 -48 -24 -5 -5 -24 -5 -48 1 -58 16 -107 0
-144 -46 -30 -38 -31 -42 -32 -141 -1 -74 -5 -109 -16 -126 -9 -14 -19 -35
-23 -47 -10 -34 20 -87 60 -106 25 -12 35 -23 35 -39 1 -37 35 -100 74 -137
27 -26 36 -43 36 -68 l0 -33 -72 0 c-40 0 -90 -5 -110 -10 -59 -17 -120 -69
-151 -130 -27 -53 -27 -58 -25 -205 l3 -150 478 -3 477 -2 0 152 c0 140 -2
157 -24 203 -45 96 -112 135 -246 144 -85 6 -85 6 -88 35 -3 22 5 37 32 65 38
39 75 112 76 149 0 13 6 22 16 22 8 0 29 14 46 30 27 28 29 35 23 73 -3 23 -8
75 -10 115 -6 103 -19 143 -66 196 -71 81 -170 113 -253 82z m-113 -91 c1 -5
-11 -11 -26 -13 -18 -2 -32 -12 -39 -28 -13 -28 -28 -32 -28 -6 0 39 86 82 93
47z m121 -159 c30 -24 86 -59 124 -77 l71 -34 0 -89 c1 -71 -3 -99 -19 -132
-59 -121 -234 -140 -323 -34 -36 42 -47 89 -47 195 0 89 1 91 28 107 16 10 46
37 68 62 21 24 40 45 42 45 1 1 27 -19 56 -43z m-234 -152 c0 -61 -13 -68 -39
-22 -13 23 -13 29 2 52 27 40 37 31 37 -30z m518 8 c3 -23 -22 -62 -40 -62 -4
0 -8 21 -8 46 0 41 2 45 23 42 14 -2 23 -11 25 -26z m-198 -360 c0 -30 -65
-162 -80 -162 -13 0 -90 144 -90 168 l0 27 85 0 85 0 0 -33z m-311 -104 c12
-29 27 -63 33 -74 10 -21 46 -34 93 -34 29 0 76 -83 68 -122 -3 -15 -9 -25
-14 -22 -5 3 -6 -2 -3 -11 4 -9 1 -36 -6 -60 l-13 -45 -183 0 -184 0 0 128 c0
139 13 184 63 231 23 21 29 22 43 10 15 -12 16 -12 10 7 -5 17 -1 23 26 31 18
6 36 11 39 12 4 1 16 -23 28 -51z m155 -9 c20 -34 35 -63 34 -64 -2 -2 -29 2
-61 7 -52 9 -59 13 -71 42 -32 76 -32 76 17 76 44 0 45 -1 81 -61z m276 52 c0
-20 -42 -101 -53 -102 -7 0 -33 -4 -59 -8 -27 -4 -48 -7 -48 -5 0 1 16 30 36
63 36 60 37 61 80 61 24 0 44 -4 44 -9z m50 -72 c7 -11 9 -27 6 -35 -3 -7 0
-13 6 -11 17 3 24 -44 27 -175 l2 -118 -110 0 -110 0 -21 69 c-26 88 -25 95 8
146 24 38 32 43 75 48 61 8 64 10 78 57 14 45 23 50 39 19z m-232 -78 c12 -7
12 -12 1 -30 -8 -11 -16 -21 -19 -21 -3 0 -11 10 -19 21 -11 18 -11 23 1 30 7
5 15 9 18 9 3 0 11 -4 18 -9z m0 -221 c10 -39 9 -40 -18 -40 -27 0 -27 0 -17
40 6 22 14 40 18 40 4 0 11 -18 17 -40z"/>
<path d="M246 197 c3 -10 9 -15 12 -12 3 3 0 11 -7 18 -10 9 -11 8 -5 -6z"/>
<path d="M291 166 c-20 -11 -21 -14 -7 -19 10 -4 15 -3 11 3 -3 6 1 10 9 10 9
0 16 5 16 10 0 12 0 12 -29 -4z"/>
<path d="M236 103 c-6 -14 -5 -15 5 -6 7 7 10 15 7 18 -3 3 -9 -2 -12 -12z"/>
<path d="M819 253 c-13 -16 -12 -17 4 -4 16 13 21 21 13 21 -2 0 -10 -8 -17
-17z"/>
</g>
</svg>
