<?xml version="1.0" standalone="no"?>
<!DOCTYPE svg PUBLIC "-//W3C//DTD SVG 20010904//EN"
 "http://www.w3.org/TR/2001/REC-SVG-20010904/DTD/svg10.dtd">
<svg version="1.0" xmlns="http://www.w3.org/2000/svg"
 width="128.000000pt" height="128.000000pt" viewBox="0 0 128.000000 128.000000"
 preserveAspectRatio="xMidYMid meet">

<g transform="translate(0.000000,128.000000) scale(0.100000,-0.100000)"
fill="#000000" stroke="none">
<path d="M38 1251 l-33 -29 0 -581 0 -581 28 -27 27 -28 592 -3 c676 -3 628
-9 628 84 0 43 -4 56 -20 66 -19 12 -20 24 -20 209 0 185 -1 198 -21 223 -17
22 -29 27 -55 24 -24 -2 -40 4 -58 21 -18 17 -33 22 -55 19 -19 -3 -32 0 -35
9 -3 7 -17 18 -31 25 l-25 11 0 260 0 259 -34 34 -34 34 -411 0 -411 0 -32
-29z m866 -27 c9 -8 16 -23 16 -32 4 -218 4 -282 -1 -282 -4 0 -12 7 -19 16
-9 10 -26 14 -49 12 -28 -2 -40 -10 -56 -35 l-20 -32 -150 -3 c-125 -2 -150
-5 -150 -18 0 -13 25 -15 153 -18 l152 -3 0 -49 0 -49 -152 -3 c-128 -3 -153
-5 -153 -18 0 -13 25 -15 153 -18 l152 -3 0 -54 c0 -52 -1 -55 -25 -55 -15 0
-39 7 -55 15 -23 12 -34 13 -57 3 -15 -6 -59 -14 -98 -17 -53 -5 -70 -10 -70
-21 0 -11 14 -16 58 -18 52 -3 57 -5 57 -26 0 -13 9 -35 20 -49 l21 -26 -78
-3 c-61 -2 -78 -6 -78 -18 0 -12 20 -16 97 -20 l96 -5 42 -52 41 -52 -138 -3
c-115 -3 -138 -6 -138 -18 0 -13 25 -15 153 -18 l153 -3 -3 -47 -3 -47 -145
-3 c-140 -2 -182 -12 -150 -32 8 -5 73 -10 143 -10 l128 0 -4 -32 -3 -33 -329
-3 c-281 -2 -331 0 -352 13 l-23 15 0 567 c0 513 2 568 17 585 15 17 42 18
424 18 357 0 410 -2 423 -16z m-28 -331 c14 -15 16 -37 13 -182 -4 -149 -2
-166 13 -169 14 -3 17 6 20 44 3 50 22 72 52 61 12 -5 16 -20 16 -67 0 -53 2
-61 18 -58 12 2 19 16 22 43 4 28 10 41 24 43 29 6 41 -15 41 -71 0 -41 4 -52
18 -55 14 -3 17 4 17 32 0 31 20 66 39 66 26 0 31 -31 31 -217 l0 -193 -190 0
-190 0 0 44 c0 48 -5 57 -137 219 -35 44 -63 85 -63 92 0 18 28 45 46 45 9 0
42 -25 74 -56 32 -31 64 -53 69 -49 7 4 11 78 11 214 0 148 3 210 12 219 16
16 23 15 44 -5z m362 -811 l3 -42 -228 2 -228 3 -3 34 c-2 20 2 37 10 43 7 5
110 7 228 6 l215 -3 3 -43z"/>
<path d="M132 1068 l3 -103 105 0 105 0 3 46 c3 41 6 47 37 62 19 9 35 21 35
26 0 14 -25 20 -41 10 -24 -15 -29 -10 -29 26 l0 35 -110 0 -111 0 3 -102z
m178 39 c0 -16 -9 -28 -25 -35 -34 -16 -35 -15 -35 7 0 25 -27 48 -41 34 -7
-7 -6 -26 2 -57 11 -44 14 -48 38 -43 14 3 34 9 44 12 12 5 17 2 17 -9 0 -13
-13 -16 -73 -16 l-72 0 -3 65 -3 65 75 0 c73 0 76 -1 76 -23z"/>
<path d="M475 1149 c-16 -24 18 -29 186 -27 147 3 174 5 174 18 0 13 -28 15
-177 18 -121 2 -179 -1 -183 -9z"/>
<path d="M475 1009 c-15 -24 17 -29 161 -27 125 3 149 5 149 18 0 13 -25 15
-152 18 -103 2 -154 -1 -158 -9z"/>
<path d="M131 868 c-10 -27 -5 -178 6 -189 5 -5 53 -9 109 -7 l99 3 3 48 c3
43 6 48 38 62 51 21 42 55 -10 35 -25 -9 -26 -8 -26 25 0 19 -3 35 -7 36 -5 0
-52 1 -107 3 -87 2 -99 0 -105 -16z m179 -48 c0 -18 -26 -40 -48 -40 -6 0 -13
12 -16 26 -5 17 -12 24 -24 22 -13 -3 -16 -13 -14 -45 2 -37 0 -41 -18 -36
-12 3 -20 14 -20 27 0 11 -3 31 -6 44 -6 21 -4 22 70 22 69 0 76 -2 76 -20z"/>
<path d="M134 589 c-9 -16 -12 -105 -5 -159 l6 -44 95 -1 c52 -1 101 0 108 3
6 2 12 17 12 33 0 32 3 34 30 19 13 -7 21 -6 29 4 12 14 2 28 -29 38 -12 5
-11 7 5 14 44 17 40 49 -5 39 -27 -6 -29 -4 -32 27 l-3 33 -102 3 c-69 2 -104
-1 -109 -9z m176 -55 c0 -12 -6 -15 -22 -9 -61 18 -68 18 -68 -3 0 -13 9 -23
22 -28 l23 -7 -23 -8 c-22 -9 -30 -33 -12 -44 5 -3 25 1 45 9 33 14 35 14 35
-5 0 -17 -7 -19 -69 -19 -77 0 -81 4 -81 88 l0 42 75 0 c62 0 75 -3 75 -16z"/>
<path d="M126 293 c-3 -10 -3 -56 -2 -103 l4 -85 111 -3 111 -3 0 46 c0 40 3
47 28 58 50 22 52 53 2 42 -27 -6 -29 -4 -32 27 l-3 33 -107 3 c-95 2 -107 1
-112 -15z m184 -53 c0 -16 -3 -30 -7 -30 -5 0 -18 -3 -29 -6 -17 -4 -23 0 -28
20 -6 25 -29 35 -40 18 -3 -5 0 -27 6 -50 11 -45 24 -51 72 -32 20 7 26 6 26
-5 0 -15 -67 -29 -116 -23 -29 3 -29 4 -32 71 l-4 67 76 0 76 0 0 -30z"/>
</g>
</svg>
