<?xml version="1.0" standalone="no"?>
<!DOCTYPE svg PUBLIC "-//W3C//DTD SVG 20010904//EN"
 "http://www.w3.org/TR/2001/REC-SVG-20010904/DTD/svg10.dtd">
<svg version="1.0" xmlns="http://www.w3.org/2000/svg"
 width="128.000000pt" height="128.000000pt" viewBox="0 0 128.000000 128.000000"
 preserveAspectRatio="xMidYMid meet">

<g transform="translate(0.000000,128.000000) scale(0.100000,-0.100000)"
fill="#000000" stroke="none">
<path d="M187 1273 c-4 -3 -7 -95 -7 -204 l0 -197 -66 -61 -66 -60 0 -288 c0
-158 1 -327 1 -375 l1 -88 589 0 c528 0 589 2 595 16 3 9 6 176 6 372 l0 357
-70 58 -70 58 -2 207 -3 207 -451 3 c-248 1 -454 -1 -457 -5z m883 -312 l0
-280 -160 -87 c-181 -97 -155 -96 -242 -16 l-36 35 -55 -52 -55 -52 -153 85
-154 84 -2 281 -2 281 429 0 430 0 0 -279z m-904 -248 c-3 -3 -19 3 -36 14
l-32 20 34 26 33 27 3 -41 c2 -23 1 -43 -2 -46z m987 16 c-40 -27 -43 -24 -43
27 l0 45 35 -27 36 -27 -28 -18z m-866 -135 c106 -58 195 -109 197 -113 3 -4
-84 -96 -193 -205 l-198 -198 -6 49 c-7 65 -7 573 0 573 3 0 93 -48 200 -106z
m901 -360 l-3 -156 -204 198 c-201 196 -203 198 -181 214 13 8 104 58 204 111
l181 97 3 -154 c1 -85 1 -224 0 -310z m-110 -111 l83 -83 -523 0 -523 0 260
260 259 259 181 -177 c99 -97 217 -214 263 -259z"/>
<path d="M345 1099 c-4 -6 -3 -15 2 -20 5 -5 130 -8 299 -7 249 3 289 5 289
18 0 13 -40 15 -292 18 -204 2 -294 -1 -298 -9z"/>
<path d="M340 915 c0 -13 40 -15 300 -15 260 0 300 2 300 15 0 13 -40 15 -300
15 -260 0 -300 -2 -300 -15z"/>
<path d="M345 749 c-4 -6 -3 -15 2 -20 5 -5 130 -8 299 -7 249 3 289 5 289 18
0 13 -40 15 -292 18 -204 2 -294 -1 -298 -9z"/>
</g>
</svg>
