<?xml version="1.0" standalone="no"?>
<!DOCTYPE svg PUBLIC "-//W3C//DTD SVG 20010904//EN"
 "http://www.w3.org/TR/2001/REC-SVG-20010904/DTD/svg10.dtd">
<svg version="1.0" xmlns="http://www.w3.org/2000/svg"
 width="128.000000pt" height="128.000000pt" viewBox="0 0 128.000000 128.000000"
 preserveAspectRatio="xMidYMid meet">

<g transform="translate(0.000000,128.000000) scale(0.100000,-0.100000)"
fill="#000000" stroke="none">
<path d="M546 1271 c-3 -4 3 -16 14 -26 11 -10 20 -21 20 -24 0 -4 -28 -12
-62 -18 -97 -19 -203 -76 -279 -152 -91 -91 -157 -211 -116 -211 6 0 25 26 42
58 38 74 144 179 221 220 64 33 184 67 184 51 0 -5 -4 -9 -10 -9 -5 0 -10 -9
-10 -20 0 -30 20 -24 70 20 l45 40 -45 40 c-45 40 -64 48 -74 31z"/>
<path d="M840 1158 c0 -7 28 -28 63 -47 82 -45 174 -140 214 -221 31 -61 65
-170 57 -179 -2 -2 -13 4 -24 14 -18 16 -20 16 -26 1 -6 -15 57 -106 75 -106
10 0 81 87 81 99 0 21 -20 21 -39 -1 -12 -12 -22 -20 -24 -17 -2 2 -8 31 -15
64 -19 97 -76 201 -151 276 -91 91 -211 158 -211 117z"/>
<path d="M525 1050 c-11 -5 -35 -9 -53 -9 -64 -2 -122 -53 -122 -108 0 -10
-13 -25 -29 -35 -53 -29 -68 -69 -88 -226 -3 -29 0 -50 11 -67 9 -13 16 -45
16 -69 0 -35 6 -52 29 -78 15 -18 31 -51 35 -72 10 -53 60 -102 112 -111 21
-3 54 -10 72 -16 43 -14 217 -14 267 -1 22 6 56 14 76 17 48 7 98 60 106 111
3 22 19 54 35 72 21 24 28 43 28 73 0 22 7 54 16 71 10 20 14 44 10 72 -21
164 -27 181 -81 222 -21 16 -35 35 -35 48 0 47 -65 100 -118 95 -15 -1 -46 3
-70 10 -35 10 -48 9 -71 -2 -24 -12 -32 -12 -52 -1 -27 15 -65 17 -94 4z m83
-42 c9 -9 12 -105 12 -370 l0 -358 -40 0 c-44 0 -48 5 -23 32 27 30 -2 40 -43
16 -60 -35 -132 -4 -149 65 -6 21 -4 27 9 27 29 0 17 29 -19 46 -43 20 -59 47
-52 88 3 22 -1 39 -14 55 -21 26 -25 81 -7 99 7 7 11 30 10 52 -3 51 20 93 65
114 27 13 33 21 28 36 -7 21 10 58 34 77 22 17 62 16 89 -3 26 -18 45 -10 37
17 -5 16 -1 19 22 19 16 0 34 -5 41 -12z m116 6 c8 -3 12 -12 10 -19 -9 -21
15 -28 41 -11 13 9 35 16 49 16 32 0 79 -55 73 -87 -3 -17 3 -27 29 -42 48
-29 68 -64 61 -111 -3 -27 -1 -43 9 -51 20 -16 17 -73 -5 -100 -13 -17 -17
-33 -14 -56 7 -39 -16 -78 -49 -88 -38 -12 -50 -26 -37 -41 6 -8 15 -11 20 -8
5 3 9 -5 9 -16 0 -12 -15 -37 -34 -56 -40 -40 -75 -44 -123 -15 -26 16 -34 17
-42 7 -8 -10 -7 -17 4 -26 20 -17 3 -30 -37 -30 l-28 0 0 354 0 355 22 15 c26
18 22 18 42 10z"/>
<path d="M434 885 c-7 -17 -1 -60 11 -87 10 -26 -25 -24 -59 3 -21 16 -30 19
-39 10 -8 -8 -4 -18 16 -39 25 -24 35 -27 98 -27 54 0 73 3 77 14 3 8 0 17 -7
19 -41 14 -65 51 -70 115 -2 13 -21 7 -27 -8z"/>
<path d="M393 640 c-33 -20 -42 -43 -22 -55 6 -4 21 3 34 15 21 20 31 22 75
17 39 -5 50 -3 50 8 0 37 -86 46 -137 15z"/>
<path d="M447 523 c-14 -13 -6 -24 23 -35 32 -11 60 -52 60 -88 0 -28 28 -25
36 4 8 32 -20 82 -59 106 -34 21 -49 24 -60 13z"/>
<path d="M827 894 c-4 -4 -7 -15 -7 -25 0 -33 -22 -68 -52 -80 -18 -7 -28 -18
-26 -28 3 -13 17 -16 75 -16 65 0 75 3 99 26 26 26 26 49 0 49 -7 0 -21 -9
-31 -20 -10 -11 -26 -20 -35 -20 -16 0 -16 3 -1 45 14 40 14 46 0 60 -8 9 -18
12 -22 9z"/>
<path d="M768 649 c-10 -5 -18 -17 -18 -25 0 -12 7 -14 33 -8 48 11 67 7 93
-17 23 -21 44 -19 44 6 0 7 -12 23 -26 34 -29 23 -96 28 -126 10z"/>
<path d="M785 515 c-45 -23 -65 -52 -65 -97 0 -32 3 -39 18 -36 11 2 18 14 20
35 3 33 41 73 69 73 16 0 14 31 -2 37 -5 1 -23 -4 -40 -12z"/>
<path d="M36 616 c-20 -23 -36 -48 -36 -55 0 -18 22 -13 47 11 l23 21 0 -34
c1 -48 39 -154 80 -223 57 -94 215 -226 273 -226 34 0 16 26 -41 57 -139 76
-236 206 -271 363 -8 37 -1 54 14 30 8 -13 35 -13 35 1 0 13 -70 99 -81 99 -4
0 -24 -20 -43 -44z"/>
<path d="M1113 382 c-76 -138 -207 -236 -364 -271 -36 -8 -52 0 -29 14 14 8
13 35 -1 35 -14 0 -99 -68 -99 -79 0 -10 90 -81 102 -81 14 0 9 38 -7 44 -30
11 -14 23 48 34 88 16 197 73 270 142 62 58 137 169 137 202 0 35 -25 17 -57
-40z"/>
</g>
</svg>
